<svg width="30" height="31" viewBox="0 0 30 31" fill="none" xmlns="http://www.w3.org/2000/svg">
<path d="M25.5 0.5H4.5C2.01472 0.5 0 2.51472 0 5V26C0 28.4853 2.01472 30.5 4.5 30.5H25.5C27.9853 30.5 30 28.4853 30 26V5C30 2.51472 27.9853 0.5 25.5 0.5Z" fill="#37AEE2"/>
<path d="M11.6602 24.1719C11.0156 24.1719 11.0742 23.9375 10.8984 23.3516L9.02344 17.1992L23.3789 8.76172" fill="#C8DAEA"/>
<path d="M11.6602 24.1719C12.0703 24.1719 12.3047 23.9375 12.5977 23.7031L15.2344 21.1836L11.9531 19.1914" fill="#A9C9DD"/>
<path d="M11.9531 19.1914L19.8633 24.9922C20.6836 25.5195 21.3867 25.2266 21.6211 24.1719L24.8438 9.05468C25.1367 7.76562 24.3164 7.17969 23.4375 7.58984L4.6289 14.8555C3.39844 15.3242 3.39844 16.0859 4.39453 16.3789L9.25781 17.9023L20.3906 10.8125C20.918 10.5195 21.3867 10.6367 21.0352 11.0469" fill="#F6FBFE"/>
</svg>
