<svg width="30" height="31" viewBox="0 0 30 31" fill="none" xmlns="http://www.w3.org/2000/svg">
<path d="M25.5 0.5H4.5C2.01472 0.5 0 2.51472 0 5V26C0 28.4853 2.01472 30.5 4.5 30.5H25.5C27.9853 30.5 30 28.4853 30 26V5C30 2.51472 27.9853 0.5 25.5 0.5Z" fill="#5281B8"/>
<path d="M16.0547 21.7695C16.3477 21.7109 16.875 21.5937 16.875 20.8906C16.875 20.8906 16.8164 19.1328 17.6367 18.8984C18.457 18.6641 19.5117 20.5977 20.625 21.3594C21.4453 21.8867 22.0898 21.8281 22.0898 21.8281L25.0781 21.7695C25.0781 21.7695 26.6016 21.6523 25.8984 20.4219C25.8398 20.3047 25.3711 19.543 23.6133 17.9609C21.7969 16.2031 22.0898 16.4961 24.2578 13.5078C25.6055 11.6914 26.1914 10.5781 26.0156 10.168C25.7812 9.75781 24.8437 9.8164 24.8437 9.8164H21.5039C21.1523 9.8164 20.9766 9.875 20.8008 10.168C20.8008 10.168 20.2734 11.6328 19.5703 12.8047C18.1055 15.3242 17.5195 15.4414 17.2266 15.2656C16.6992 14.9727 16.8164 13.8594 16.8164 13.0977C16.8164 10.4609 17.2266 9.52343 16.0547 9.28906C15.293 9.17187 12.5977 9.05468 11.7773 9.46484C11.3672 9.69922 11.1328 10.1094 11.3086 10.168C11.4844 10.168 12.0117 10.2266 12.3047 10.5781C12.7734 11.3398 12.832 14.9727 12.1875 15.3242C11.3086 15.9687 9.08203 11.6914 8.55469 10.2852C8.4375 9.93359 8.26172 9.875 7.85156 9.75781H4.6289C4.27734 9.75781 3.75 9.8164 3.98437 10.5195C5.5664 13.8008 8.84765 21.8281 14.7656 21.7695H16.0547Z" fill="white"/>
</svg>
