<svg width="30" height="31" viewBox="0 0 30 31" fill="none" xmlns="http://www.w3.org/2000/svg">
<path d="M25.5 0.5H4.5C2.01472 0.5 0 2.51472 0 5V26C0 28.4853 2.01472 30.5 4.5 30.5H25.5C27.9853 30.5 30 28.4853 30 26V5C30 2.51472 27.9853 0.5 25.5 0.5Z" fill="#25D366"/>
<path d="M7.20708 23.5273L8.02739 19.7188C6.97305 18.0558 6.56175 16.0652 6.87065 14.1205C7.17956 12.1759 8.18744 10.4107 9.70521 9.15634C11.223 7.90193 13.1463 7.24445 15.1144 7.30725C17.0824 7.37005 18.9599 8.14881 20.3946 9.49743C21.8293 10.8461 22.7226 12.6718 22.9069 14.6322C23.0912 16.5927 22.5538 18.5529 21.3956 20.1453C20.2374 21.7377 18.5379 22.8527 16.6161 23.2812C14.6942 23.7097 12.682 23.4222 10.9571 22.4727L7.20708 23.5273Z" fill="#25D366" stroke="white" stroke-width="2"/>
<path d="M18.0469 16.4961C17.8711 16.3789 17.6953 16.3203 17.5196 16.5547L16.8164 17.4922C16.6407 17.6094 16.5235 17.668 16.2891 17.5508C15.4102 17.082 14.1797 16.5547 13.125 14.7969C13.0664 14.5625 13.1836 14.4453 13.3008 14.3281L13.8282 13.5078C13.9453 13.3906 13.8867 13.2734 13.8282 13.1562L13.125 11.457C12.9492 10.9883 12.7735 11.0469 12.5977 11.0469H12.1289C12.0117 11.0469 11.7774 11.1055 11.543 11.3398C10.2539 12.6289 10.7813 14.4453 11.7188 15.6172C11.8946 15.8516 13.0664 17.9609 15.586 19.0742C17.461 19.8945 17.8711 19.7773 18.3985 19.6602C19.043 19.6016 19.6875 19.0742 19.9805 18.5469C20.0391 18.3711 20.3321 17.6094 20.0977 17.4922" fill="white"/>
</svg>
