<svg width="117" height="71" viewBox="0 0 117 71" fill="none" xmlns="http://www.w3.org/2000/svg">
<path d="M23.1409 18C22.4353 17.3048 21.5197 16.2017 21.048 14.6753C20.3582 12.4576 21.2462 11.4187 20.8141 9.13295C20.2036 5.89139 17.7341 4.2895 18.0235 4.03259C18.3683 3.7228 22.3679 5.64204 23.1409 8.91004C23.569 10.7122 22.7723 11.9249 23.6047 14.2295C24.0051 15.344 24.5878 16.1639 25 16.6701C24.3816 17.1122 23.7593 17.558 23.1409 18Z" fill="#F4C431"/>
<path d="M15.625 28C14.625 27.96 13.1875 27.752 11.7578 26.9121C9.68364 25.6922 9.57426 24.2803 7.63287 22.8324C4.88289 20.7766 1.98057 21.2726 2.0001 20.8766C2.02354 20.4006 6.24616 19.0808 9.12895 21.0446C10.7227 22.1285 11.0196 23.6084 13.2617 24.7923C14.3438 25.3642 15.3438 25.5882 16 25.6842C15.875 26.4561 15.75 27.2281 15.625 28Z" fill="#F4C431"/>
<path d="M15 36.2252C14.1041 36.6288 12.7526 37.0868 11.1408 36.9858C8.80157 36.8423 8.10477 35.6624 5.78466 35.2588C2.49593 34.6845 0.156684 36.3959 0.00737022 36.0428C-0.172572 35.6159 2.97067 32.6082 6.3398 33.0428C8.19666 33.2834 9.09254 34.4361 11.562 34.4788C12.7526 34.4982 13.7289 34.2498 14.3453 34.048C14.5635 34.7737 14.7818 35.4995 15 36.2252Z" fill="#F4C431"/>
<path d="M18 46.8171C17.3313 47.5854 16.2605 48.5935 14.7297 49.1789C12.5071 50.0285 11.3938 49.1911 9.08219 49.7846C5.81194 50.622 4.31984 53.2562 4.04152 52.9798C3.70522 52.6464 5.42538 48.4269 8.71496 47.4187C10.5318 46.8618 11.8151 47.5935 14.1229 46.5895C15.2361 46.1057 16.0402 45.4553 16.5311 45C17.0182 45.6057 17.5091 46.2114 18 46.8171Z" fill="#F4C431"/>
<path d="M17.7104 22C17.3665 21.495 16.8938 20.7919 16.3351 19.9489C14.4244 17.0627 13.8266 16.3129 14.0415 16.0721C14.2799 15.8079 15.3817 16.3168 16.1045 16.8335C17.222 17.6337 17.3314 18.3796 18.4723 19.1875C19.0584 19.6032 19.6171 19.8246 20 19.9489C19.242 20.6326 18.4762 21.3163 17.7104 22Z" fill="#F4C431"/>
<path d="M27.3557 16C27.3146 15.3907 27.2598 14.5393 27.205 13.5277C27.0098 10.0595 26.8865 9.11046 27.1537 9.00892C27.4516 8.89565 28.0682 9.88378 28.3936 10.6962C28.8971 11.9499 28.6505 12.6529 29.1677 13.9261C29.4314 14.5784 29.7637 15.0509 30 15.3478C29.1163 15.5626 28.236 15.7813 27.3557 16Z" fill="#F4C431"/>
<path d="M34.237 15C34.0208 14.027 33.8412 12.585 34.2224 10.9867C34.7758 8.66944 35.9925 8.19269 36.7841 5.94182C37.9056 2.75309 36.7365 0.0840987 37.092 0.00203588C37.5171 -0.0995658 39.7491 3.62062 38.7412 6.91876C38.1878 8.73587 36.9564 9.41582 36.4726 11.8855C36.2417 13.0774 36.2967 14.1012 36.3737 14.7577C35.6627 14.8359 34.9517 14.9179 34.237 15Z" fill="#F4C431"/>
<path d="M39 15.0389C39.2906 14.5007 39.6933 13.7511 40.1874 12.8592C41.8688 9.8145 42.2549 8.938 42.587 9.00335C42.9565 9.07639 43.0645 10.2681 42.9648 11.1408C42.8071 12.4863 42.1719 12.9438 42.0183 14.32C41.9394 15.0235 42.0266 15.6117 42.1137 16C41.0717 15.6809 40.0338 15.3618 39 15.0389Z" fill="#F4C431"/>
<path d="M14.4571 33C13.8834 32.8164 13.0864 32.5579 12.1393 32.2432C8.8974 31.1605 7.98104 30.9395 8.0003 30.6322C8.0234 30.2913 9.19386 30.0328 10.0717 30.0028C11.427 29.9579 11.966 30.4637 13.3483 30.4112C14.0567 30.385 14.6265 30.2239 15 30.0928C14.819 31.0593 14.6381 32.0297 14.4571 33Z" fill="#F4C431"/>
<path d="M16 43.0875C15.392 43.1814 14.5446 43.308 13.5365 43.455C10.0765 43.9451 9.13505 44.1656 9.01344 43.8593C8.87615 43.5163 9.81762 42.7077 10.5983 42.2584C11.8104 41.5682 12.5361 41.8051 13.7718 41.0945C14.4034 40.731 14.8467 40.3022 15.1252 40C15.4194 41.0251 15.7097 42.0583 16 43.0875Z" fill="#F4C431"/>
<path d="M62.4355 30.2454C61.835 28.367 60.969 27.0723 58.9387 27.0723C57.7745 27.0723 56.8717 27.8824 56.8717 29.1771C56.8717 30.5711 57.8399 31.2184 59.7026 32.0604C62.5662 33.3868 64 34.3598 64 36.4964C64 39.475 61.2018 41 58.567 41C56.835 41 55.3031 40.4797 54.6005 40.0945C54.433 39.1533 54.1348 37.3741 54 36.3058L54.9681 36.143C55.5686 38.216 56.7328 39.8999 59.0654 39.8999C60.3317 39.8999 61.3979 39.058 61.3979 37.6958C61.3979 36.2383 60.4992 35.4917 58.7304 34.6497C56.3979 33.5496 54.4984 32.5131 54.4984 30.1779C54.4984 27.8149 56.5654 26 59.6944 26C61.0956 26 62.2271 26.3257 62.893 26.421C62.991 27.1994 63.2279 29.2407 63.3913 30.0151L62.4355 30.2454Z" fill="black"/>
<path d="M71.88 39.5892C71.3323 39.8721 70.8201 40 70.4969 40C68.44 40 67.3485 38.7677 67.3485 36.2372V27.0375H65.13L65 26.6578L65.8669 25.7393H67.3446V23.0848C67.9553 22.4532 68.8892 21.6317 69.5 21L69.9807 21.062C69.9177 22.3912 69.8862 24.2241 69.8862 25.7393H73.5508C73.8384 26.0571 73.7439 26.7508 73.3577 27.0337H69.8862V35.125C69.8862 37.6865 70.9146 38.1593 71.75 38.1593C72.5223 38.1593 73.2592 37.8764 73.7123 37.6516L74 38.4732L71.88 39.5892Z" fill="black"/>
<path d="M82.5979 40H75V39.138C77.0817 38.9527 77.2802 38.7977 77.2802 36.794V30.3781C77.2802 28.344 77.1465 28.2495 75.2309 28.034V27.2628C76.8509 27.017 78.3373 26.6465 79.8884 26C79.8884 27.017 79.8884 28.3743 79.8884 29.3913C81.0427 27.7883 82.4319 26.0907 84.0843 26.0907C85.3074 26.0907 86 26.8015 86 27.5728C86 28.2836 85.4694 28.9603 84.8781 29.2703C84.546 29.4556 84.2828 29.4253 84.0195 29.2098C83.5254 28.7486 83.1285 28.4386 82.5331 28.4386C81.8406 28.4386 80.6175 29.3951 79.8884 30.9679V36.7637C79.8884 38.7977 80.0545 38.9527 82.5979 39.138V40Z" fill="black"/>
<path d="M94.0644 26C98.0432 26 101 29.0787 101 33.2577C101 38.5053 97.1811 41 94.0644 41C89.672 41 87 37.4049 87 33.7741C87 28.4947 91.0412 26 94.0644 26ZM93.6821 27.1043C91.7395 27.1043 89.9919 29.0151 89.9919 32.773C89.9919 36.8885 91.7746 39.8679 94.3842 39.8679C96.358 39.8679 98.012 38.41 98.012 33.9688C98.0081 30.179 96.4829 27.1043 93.6821 27.1043Z" fill="black"/>
<path d="M117 26.8502C115.376 27.1014 115.031 27.3564 114.25 29.1495C113.468 30.9155 112.626 33.0564 110.469 38.5438C108.439 43.5869 107.876 45.5422 107.374 47.1807C107.186 47.8416 106.842 48 106.436 48C105.436 48 104.528 47.2735 104.528 46.4852C104.528 46.0755 104.746 45.7934 105.218 45.3838C106.217 44.5955 106.937 43.838 107.309 43.0497C107.964 41.7242 108.435 40.6229 108.588 40.2132C108.715 39.7418 108.715 39.4558 108.527 38.9225C107.309 35.3286 105.62 31.4527 104.685 29.1843C103.999 27.4492 103.716 27.0704 102 26.8502V26H108.313V26.8502C106.876 27.0704 106.719 27.3873 107.125 28.5505L110.155 36.3063C111.028 34.1307 112.281 30.6334 112.936 28.6471C113.311 27.4492 113.093 27.1014 111.281 26.8502V26H117V26.8502Z" fill="black"/>
<path d="M64.5273 61H59V60.3207C60.5158 60.174 60.6574 60.0544 60.6574 58.4796V53.4389C60.6574 51.8411 60.5617 51.7677 59.1684 51.5979V50.9919C60.3474 50.799 61.4268 50.5056 62.556 50C62.556 50.7989 62.556 51.8642 62.556 52.667C63.3981 51.4049 64.4048 50.0733 65.6067 50.0733C66.4947 50.0733 67 50.6291 67 51.2351C67 51.7909 66.6172 52.3274 66.1847 52.5667C65.9435 52.7133 65.7522 52.6863 65.5608 52.5165C65.201 52.1537 64.91 51.9105 64.4775 51.9105C63.9722 51.9105 63.0842 52.6632 62.556 53.8982V58.4526C62.556 60.0505 62.6746 60.174 64.5273 60.3168V61Z" fill="#1E1E1C"/>
<path d="M73.5498 50C76.675 50 79 52.2552 79 55.3203C79 59.1686 76.0022 61 73.5498 61C70.0981 61 68 58.3626 68 55.7024C68.004 51.8314 71.177 50 73.5498 50ZM73.2512 50.8098C71.7264 50.8098 70.3529 52.2098 70.3529 54.9684C70.3529 57.9842 71.7543 60.1713 73.8006 60.1713C75.3493 60.1713 76.6511 59.1004 76.6511 55.8462C76.6511 53.065 75.4528 50.8098 73.2512 50.8098Z" fill="#1E1E1C"/>
<path d="M92 60.1583C90.8311 60.3266 89.5146 60.6403 88.268 61C88.268 60.6174 88.268 59.7489 88.268 59.152C86.9515 60.2348 85.8796 61 84.5359 61C82.901 61 81.4874 60.0167 81.4874 57.3958V52.7356C81.4874 51.4386 81.2932 51.2932 80.6835 51.1746L80 51.056V50.4323C81.0485 50.3826 82.6563 50.1454 83.4874 50C83.4136 50.769 83.4136 51.9207 83.4136 53.5085V56.776C83.4136 58.888 84.5359 59.4887 85.6311 59.4887C86.532 59.4887 87.4369 59.1061 88.2641 58.337V52.7356C88.2641 51.4386 87.9728 51.2703 87.1418 51.1517L86.3612 51.056V50.4323C87.9223 50.3597 89.6272 50.0957 90.1903 50V58.0463C90.1903 59.2477 90.3845 59.416 91.3126 59.4619L91.9961 59.4849V60.1583H92Z" fill="#1E1E1C"/>
<path d="M93.1815 51.0371C94.371 50.8681 95.6895 50.4571 96.8508 50C96.8508 50.58 96.8508 51.352 96.8508 51.9282C96.9274 51.8782 98.9516 50.772 99.0524 50.7221C99.6613 50.4071 100.194 50.2381 100.52 50.2381C103.306 50.2381 105 52.4582 105 54.8434C105 58.5077 101.964 60.8238 98.6452 61.4038C97.8871 61.3807 97.2016 61.1618 96.8468 60.9697V64.2268C96.8468 66.0129 97.0484 66.155 99 66.324V67H93V66.324C94.6452 66.155 94.8468 66.0359 94.8468 64.4189V53.4453C94.8468 51.9973 94.7944 51.9013 93.1774 51.6862V51.0371H93.1815ZM96.8508 59.2874C97.4315 59.8405 98.4194 60.2284 99.254 60.2284C101.456 60.2284 102.875 58.4693 102.875 55.7652C102.875 53.1611 101.278 51.69 99.4839 51.69C98.5968 51.69 97.5323 52.2431 96.8508 52.7271V59.2874Z" fill="#1E1E1C"/>
<path d="M51 19H48V40H51V19Z" fill="black"/>
<path d="M53.1106 61C52.9733 60.7317 52.7496 60.3577 52.4004 59.9685C51.4509 58.9219 50.3757 58.6839 50.4267 58.4836C50.5052 58.17 53.0282 59.1562 55.2923 58.1851C55.5669 58.068 57.1364 57.3652 57.7446 55.7594C58.4195 53.9874 57.5916 52 57.16 52C56.8618 52 57.0069 52.9559 56.1829 53.6285C55.2962 54.3539 53.7973 54.3312 52.7614 53.8816C52.475 53.7569 52.3494 53.6549 52.1768 53.5529C50.7171 52.699 47.3583 52.835 45.8241 55.0113C44.8157 56.4433 44.6745 58.6461 45.726 59.7645C46.605 60.6977 47.5938 60.1121 48.8258 60.9887C50.258 60.9924 51.6863 60.9962 53.1106 61Z" fill="#3AAA35"/>
<path d="M55.9096 46.3816C55.5629 44.6922 54.2073 43.5426 53.4546 43.2397C51.5514 42.4708 48.5684 41.5775 44.9115 41.7367C44.5608 41.7523 44.0407 41.7834 43.3984 41.8571C42.3975 39.4337 41.4044 36.9754 40.4193 34.4666C38.4884 29.5382 36.6955 24.7147 35.0286 20L32.9401 20.3845L19.4358 54.1372C17.1542 59.9239 16.11 60.3744 12 60.887V62.689H27.0687V60.887C21.7174 60.2423 20.8071 59.7297 22.2415 55.5509C23.0966 53.0886 24.0069 50.7313 24.9763 48.071H31.1905C30.958 48.3894 30.7373 48.7195 30.5285 49.0691C29.3306 51.1002 28.6449 53.512 28.6449 56.2577C28.6449 64.9221 34.6818 71 44.6081 71C48.2807 71 51.8233 70.0524 54.5344 69.4465C54.3807 68.6349 54.3137 67.6989 54.2901 66.6969C54.6092 65.0736 54.6959 63.0463 53.6438 61.4268H49.3683C50.7711 62.6579 50.913 64.7201 50.8105 65.8658C50.7751 66.2697 50.6372 67.1008 50.0106 67.8465C49.8293 68.0601 49.5417 68.3941 48.9821 68.6698C48.1073 69.1009 46.7518 69.4038 45.2662 69.4038C36.7822 69.4038 33.1963 62.5958 33.1963 55.7412C33.1963 50.4283 35.1626 46.6457 38.4884 44.7388C40.0095 48.8322 41.5305 52.9255 43.0476 57.0189C43.0122 56.6888 42.8073 54.2809 44.6239 52.5566C45.6563 51.574 46.8424 51.2905 47.3783 51.1973C46.2513 48.6302 45.1283 46.0049 44.0131 43.3329C44.0801 43.3329 44.1471 43.329 44.218 43.329C45.4868 43.329 47.2798 43.5426 48.2846 43.8883C51.0076 44.7815 52.2804 46.3156 53.3207 49.8885H53.8329C54.3846 49.7138 55.2594 49.3021 55.7205 48.3933C56.1382 47.5583 55.9845 46.7467 55.9096 46.3816ZM35.1547 44.498H26.3042C28.2272 39.5075 30.3827 33.8141 32.42 28.4197C34.2444 33.3325 36.0689 38.2492 37.8973 43.162C36.9831 43.5116 36.0571 43.9543 35.1547 44.498Z" fill="black"/>
</svg>
